<?xml version="1.0" standalone="no"?>
<!DOCTYPE svg PUBLIC "-//W3C//DTD SVG 20010904//EN"
 "http://www.w3.org/TR/2001/REC-SVG-20010904/DTD/svg10.dtd">
<svg version="1.0" xmlns="http://www.w3.org/2000/svg"
 width="512.000000pt" height="512.000000pt" viewBox="0 0 512.000000 512.000000"
 preserveAspectRatio="xMidYMid meet">

<g transform="translate(0.000000,512.000000) scale(0.100000,-0.100000)"
fill="red" stroke="none">
<path d="M2330 5110 c-494 -48 -950 -230 -1350 -538 -195 -150 -448 -432 -594
-662 -63 -99 -186 -351 -230 -471 -49 -134 -102 -340 -128 -499 -31 -195 -31
-565 0 -760 45 -276 116 -498 237 -745 132 -269 269 -460 489 -681 221 -220
412 -357 681 -489 247 -121 469 -192 745 -237 195 -31 565 -31 760 0 276 45
498 116 745 237 269 132 460 269 681 489 220 221 357 412 489 681 88 179 132
296 180 476 63 240 78 371 78 649 0 278 -15 409 -78 649 -48 180 -92 297 -180
476 -132 269 -269 460 -489 681 -221 220 -412 357 -681 489 -246 121 -474 193
-740 235 -147 23 -475 34 -615 20z m468 -331 c828 -90 1540 -635 1842 -1411
228 -584 197 -1247 -85 -1808 -516 -1028 -1734 -1497 -2806 -1079 -1005 391
-1589 1458 -1378 2514 191 951 979 1676 1939 1784 110 12 376 13 488 0z"/>
<path d="M1965 3599 c-241 -24 -452 -125 -631 -303 -205 -206 -304 -445 -304
-736 0 -291 99 -530 304 -736 182 -181 389 -279 637 -302 329 -31 628 82 855
321 203 213 294 457 294 790 l0 87 -525 0 -525 0 0 -160 0 -160 351 0 351 0
-6 -25 c-52 -205 -223 -398 -426 -481 -366 -149 -783 29 -933 396 -43 105 -51
149 -51 270 0 121 8 165 51 270 93 229 285 385 533 436 172 34 383 -8 526
-107 l43 -29 100 130 100 130 -57 38 c-198 135 -439 195 -687 171z"/>
<path d="M3700 2865 l0 -145 -145 0 -145 0 0 -160 0 -160 145 0 145 0 0 -145
0 -145 163 2 162 3 3 143 3 142 139 0 140 0 0 160 0 160 -140 0 -139 0 -3 143
-3 142 -162 3 -163 2 0 -145z"/>
</g>
</svg>
